<svg width="38" height="38" viewBox="0 0 38 38" fill="none" xmlns="http://www.w3.org/2000/svg">
    <rect x="0.5" y="0.5" width="37" height="37" rx="18.5" fill="#00001C"/>
    <path d="M16.5117 24H11.4258V15.4336H16.5117V17.291H13.7402V18.6387H16.3066V20.4961H13.7402V22.1133H16.5117V24ZM25.928 24H22.8928L19.7639 17.9648H19.7112C19.7307 18.1484 19.7483 18.3691 19.7639 18.627C19.7795 18.8848 19.7932 19.1484 19.8049 19.418C19.8166 19.6836 19.8225 19.9238 19.8225 20.1387V24H17.7717V15.4336H20.7952L23.9123 21.3867H23.9475C23.9358 21.1992 23.9241 20.9824 23.9123 20.7363C23.9006 20.4863 23.8889 20.2344 23.8772 19.9805C23.8694 19.7266 23.8655 19.502 23.8655 19.3066V15.4336H25.928V24Z" fill="#70FBFB"/>
    <rect x="0.5" y="0.5" width="37" height="37" rx="18.5" stroke="#70FBFB"/>
</svg>
