<svg width="1440" height="872" viewBox="0 0 1440 872" fill="none" xmlns="http://www.w3.org/2000/svg">
    <path d="M1051.24 201.033L736.132 384.145C729.334 388.085 718.287 388.085 711.463 384.145L394.293 201.059C390.842 199.076 389.143 196.475 389.143 193.874L388.834 1139.85C388.834 1142.45 390.533 1145.05 393.984 1147.03L711.154 1330.15C718.004 1334.09 729.051 1334.09 735.823 1330.15L1050.93 1147.01C1054.31 1145.05 1056.01 1142.48 1056.01 1139.9L1056.32 193.926C1056.32 196.501 1054.62 199.05 1051.24 201.033V201.033Z" fill="#00001C"/>
    <path d="M1051.24 201.033L736.132 384.145C729.334 388.085 718.287 388.085 711.463 384.145L394.293 201.059C390.842 199.076 389.143 196.475 389.143 193.874L388.834 1139.85C388.834 1142.45 390.533 1145.05 393.984 1147.03L711.154 1330.15C718.004 1334.09 729.051 1334.09 735.823 1330.15L1050.93 1147.01C1054.31 1145.05 1056.01 1142.48 1056.01 1139.9L1056.32 193.926C1056.32 196.501 1054.62 199.05 1051.24 201.033V201.033Z" fill="url(#paint0_linear_14_2383)" fill-opacity="0.3"/>
    <path d="M1051.24 201.033L736.132 384.145C729.334 388.085 718.287 388.085 711.463 384.145L394.293 201.059C390.842 199.076 389.143 196.475 389.143 193.874L388.834 1139.85C388.834 1142.45 390.533 1145.05 393.984 1147.03L711.154 1330.15C718.004 1334.09 729.051 1334.09 735.823 1330.15L1050.93 1147.01C1054.31 1145.05 1056.01 1142.48 1056.01 1139.9L1056.32 193.926C1056.32 196.501 1054.62 199.05 1051.24 201.033V201.033Z" fill="url(#paint1_linear_14_2383)" fill-opacity="0.3"/>
    <path d="M1051.17 186.74C1058.02 190.68 1058.04 197.092 1051.24 201.032L736.133 384.17C729.334 388.11 718.287 388.11 711.463 384.17L394.293 201.058C387.443 197.118 387.418 190.706 394.216 186.766L709.326 3.62786C716.124 -0.311987 727.171 -0.311987 733.995 3.62786L1051.17 186.74ZM742.261 219.624C749.111 223.564 760.158 223.564 766.93 219.624C773.703 215.684 773.677 209.272 766.853 205.332L705.85 170.106C699 166.166 687.953 166.166 681.181 170.106C674.408 174.045 674.434 180.432 681.284 184.397L742.287 219.624" fill="#35374F"/>
    <path d="M1051.17 186.74C1058.02 190.68 1058.04 197.092 1051.24 201.032L736.133 384.17C729.334 388.11 718.287 388.11 711.463 384.17L394.293 201.058C387.443 197.118 387.418 190.706 394.216 186.766L709.326 3.62786C716.124 -0.311987 727.171 -0.311987 733.995 3.62786L1051.17 186.74ZM742.261 219.624C749.111 223.564 760.158 223.564 766.93 219.624C773.703 215.684 773.677 209.272 766.853 205.332L705.85 170.106C699 166.166 687.953 166.166 681.181 170.106C674.408 174.045 674.434 180.432 681.284 184.397L742.287 219.624" fill="url(#paint2_linear_14_2383)" fill-opacity="0.2"/>
    <path d="M1051.17 186.74C1058.02 190.68 1058.04 197.092 1051.24 201.032L736.133 384.17C729.334 388.11 718.287 388.11 711.463 384.17L394.293 201.058C387.443 197.118 387.418 190.706 394.216 186.766L709.326 3.62786C716.124 -0.311987 727.171 -0.311987 733.995 3.62786L1051.17 186.74ZM742.261 219.624C749.111 223.564 760.158 223.564 766.93 219.624C773.703 215.684 773.677 209.272 766.853 205.332L705.85 170.106C699 166.166 687.953 166.166 681.181 170.106C674.408 174.045 674.434 180.432 681.284 184.397L742.287 219.624" fill="#00001C"/>
    <path d="M1051.17 186.74C1058.02 190.68 1058.04 197.092 1051.24 201.032L736.133 384.17C729.334 388.11 718.287 388.11 711.463 384.17L394.293 201.058C387.443 197.118 387.418 190.706 394.216 186.766L709.326 3.62786C716.124 -0.311987 727.171 -0.311987 733.995 3.62786L1051.17 186.74ZM742.261 219.624C749.111 223.564 760.158 223.564 766.93 219.624C773.703 215.684 773.677 209.272 766.853 205.332L705.85 170.106C699 166.166 687.953 166.166 681.181 170.106C674.408 174.045 674.434 180.432 681.284 184.397L742.287 219.624" fill="url(#paint3_linear_14_2383)" fill-opacity="0.4"/>
    <path d="M1051.17 186.74C1058.02 190.68 1058.04 197.092 1051.24 201.032L736.133 384.17C729.334 388.11 718.287 388.11 711.463 384.17L394.293 201.058C387.443 197.118 387.418 190.706 394.216 186.766L709.326 3.62786C716.124 -0.311987 727.171 -0.311987 733.995 3.62786L1051.17 186.74ZM742.261 219.624C749.111 223.564 760.158 223.564 766.93 219.624C773.703 215.684 773.677 209.272 766.853 205.332L705.85 170.106C699 166.166 687.953 166.166 681.181 170.106C674.408 174.045 674.434 180.432 681.284 184.397L742.287 219.624" fill="url(#paint4_linear_14_2383)" fill-opacity="0.4"/>
    <path d="M1434.93 473.398L1301.77 550.778C1294.97 554.718 1283.93 554.718 1277.1 550.778L1250.42 535.379C1243.6 531.44 1232.55 531.44 1225.75 535.379C1222.38 537.336 1220.71 539.912 1220.68 542.461L1220.53 597.953L1119.79 656.485C1112.99 660.424 1101.95 660.424 1095.12 656.485L777.952 473.423C774.527 471.441 772.802 468.84 772.802 466.239L772.518 1681.1C772.518 1683.7 774.218 1686.3 777.668 1688.29L1094.84 1871.4C1101.69 1875.34 1112.74 1875.34 1119.51 1871.4L1252.28 1794.22C1255.65 1792.27 1257.35 1789.69 1257.35 1787.12L1257.45 1754.47L1276.79 1765.64C1283.64 1769.58 1294.69 1769.58 1301.46 1765.64L1434.62 1688.26C1437.99 1686.3 1439.69 1683.73 1439.69 1681.15L1440 466.291C1440 468.866 1438.3 471.415 1434.93 473.398V473.398Z" fill="#00001C"/>
    <path d="M1434.93 473.398L1301.77 550.778C1294.97 554.718 1283.93 554.718 1277.1 550.778L1250.42 535.379C1243.6 531.44 1232.55 531.44 1225.75 535.379C1222.38 537.336 1220.71 539.912 1220.68 542.461L1220.53 597.953L1119.79 656.485C1112.99 660.424 1101.95 660.424 1095.12 656.485L777.952 473.423C774.527 471.441 772.802 468.84 772.802 466.239L772.518 1681.1C772.518 1683.7 774.218 1686.3 777.668 1688.29L1094.84 1871.4C1101.69 1875.34 1112.74 1875.34 1119.51 1871.4L1252.28 1794.22C1255.65 1792.27 1257.35 1789.69 1257.35 1787.12L1257.45 1754.47L1276.79 1765.64C1283.64 1769.58 1294.69 1769.58 1301.46 1765.64L1434.62 1688.26C1437.99 1686.3 1439.69 1683.73 1439.69 1681.15L1440 466.291C1440 468.866 1438.3 471.415 1434.93 473.398V473.398Z" fill="url(#paint5_linear_14_2383)" fill-opacity="0.3"/>
    <path d="M1434.93 473.398L1301.77 550.778C1294.97 554.718 1283.93 554.718 1277.1 550.778L1250.42 535.379C1243.6 531.44 1232.55 531.44 1225.75 535.379C1222.38 537.336 1220.71 539.912 1220.68 542.461L1220.53 597.953L1119.79 656.485C1112.99 660.424 1101.95 660.424 1095.12 656.485L777.952 473.423C774.527 471.441 772.802 468.84 772.802 466.239L772.518 1681.1C772.518 1683.7 774.218 1686.3 777.668 1688.29L1094.84 1871.4C1101.69 1875.34 1112.74 1875.34 1119.51 1871.4L1252.28 1794.22C1255.65 1792.27 1257.35 1789.69 1257.35 1787.12L1257.45 1754.47L1276.79 1765.64C1283.64 1769.58 1294.69 1769.58 1301.46 1765.64L1434.62 1688.26C1437.99 1686.3 1439.69 1683.73 1439.69 1681.15L1440 466.291C1440 468.866 1438.3 471.415 1434.93 473.398V473.398Z" fill="url(#paint6_linear_14_2383)" fill-opacity="0.3"/>
    <path d="M1250.42 535.406C1243.6 531.466 1232.55 531.466 1225.76 535.406C1218.96 539.346 1219.01 545.732 1225.83 549.672L1252.51 565.071C1259.36 569.01 1259.39 575.422 1252.59 579.362L1119.82 656.537C1113.02 660.477 1101.97 660.477 1095.15 656.537L777.952 473.424C771.128 469.484 771.102 463.098 777.9 459.133L994.721 333.109C999.098 330.56 1005.48 329.555 1011.48 330.482L1279.52 371.4C1282.51 371.864 1285.24 372.739 1287.43 374.027L1434.82 459.133C1441.67 463.072 1441.7 469.484 1434.9 473.424L1301.75 550.805C1294.95 554.745 1283.9 554.745 1277.08 550.805L1250.4 535.406H1250.42ZM1132.28 495.673C1139.13 499.613 1150.18 499.613 1156.95 495.673C1163.72 491.733 1163.7 485.321 1156.87 481.381L1095.84 446.154C1089.02 442.214 1077.97 442.214 1071.17 446.154C1064.38 450.094 1064.43 456.48 1071.25 460.42L1132.28 495.647" fill="#35374F"/>
    <path d="M1250.42 535.406C1243.6 531.466 1232.55 531.466 1225.76 535.406C1218.96 539.346 1219.01 545.732 1225.83 549.672L1252.51 565.071C1259.36 569.01 1259.39 575.422 1252.59 579.362L1119.82 656.537C1113.02 660.477 1101.97 660.477 1095.15 656.537L777.952 473.424C771.128 469.484 771.102 463.098 777.9 459.133L994.721 333.109C999.098 330.56 1005.48 329.555 1011.48 330.482L1279.52 371.4C1282.51 371.864 1285.24 372.739 1287.43 374.027L1434.82 459.133C1441.67 463.072 1441.7 469.484 1434.9 473.424L1301.75 550.805C1294.95 554.745 1283.9 554.745 1277.08 550.805L1250.4 535.406H1250.42ZM1132.28 495.673C1139.13 499.613 1150.18 499.613 1156.95 495.673C1163.72 491.733 1163.7 485.321 1156.87 481.381L1095.84 446.154C1089.02 442.214 1077.97 442.214 1071.17 446.154C1064.38 450.094 1064.43 456.48 1071.25 460.42L1132.28 495.647" fill="url(#paint7_linear_14_2383)" fill-opacity="0.2"/>
    <path d="M1250.42 535.406C1243.6 531.466 1232.55 531.466 1225.76 535.406C1218.96 539.346 1219.01 545.732 1225.83 549.672L1252.51 565.071C1259.36 569.01 1259.39 575.422 1252.59 579.362L1119.82 656.537C1113.02 660.477 1101.97 660.477 1095.15 656.537L777.952 473.424C771.128 469.484 771.102 463.098 777.9 459.133L994.721 333.109C999.098 330.56 1005.48 329.555 1011.48 330.482L1279.52 371.4C1282.51 371.864 1285.24 372.739 1287.43 374.027L1434.82 459.133C1441.67 463.072 1441.7 469.484 1434.9 473.424L1301.75 550.805C1294.95 554.745 1283.9 554.745 1277.08 550.805L1250.4 535.406H1250.42ZM1132.28 495.673C1139.13 499.613 1150.18 499.613 1156.95 495.673C1163.72 491.733 1163.7 485.321 1156.87 481.381L1095.84 446.154C1089.02 442.214 1077.97 442.214 1071.17 446.154C1064.38 450.094 1064.43 456.48 1071.25 460.42L1132.28 495.647" fill="#00001C"/>
    <path d="M1250.42 535.406C1243.6 531.466 1232.55 531.466 1225.76 535.406C1218.96 539.346 1219.01 545.732 1225.83 549.672L1252.51 565.071C1259.36 569.01 1259.39 575.422 1252.59 579.362L1119.82 656.537C1113.02 660.477 1101.97 660.477 1095.15 656.537L777.952 473.424C771.128 469.484 771.102 463.098 777.9 459.133L994.721 333.109C999.098 330.56 1005.48 329.555 1011.48 330.482L1279.52 371.4C1282.51 371.864 1285.24 372.739 1287.43 374.027L1434.82 459.133C1441.67 463.072 1441.7 469.484 1434.9 473.424L1301.75 550.805C1294.95 554.745 1283.9 554.745 1277.08 550.805L1250.4 535.406H1250.42ZM1132.28 495.673C1139.13 499.613 1150.18 499.613 1156.95 495.673C1163.72 491.733 1163.7 485.321 1156.87 481.381L1095.84 446.154C1089.02 442.214 1077.97 442.214 1071.17 446.154C1064.38 450.094 1064.43 456.48 1071.25 460.42L1132.28 495.647" fill="url(#paint8_linear_14_2383)" fill-opacity="0.4"/>
    <path d="M1250.42 535.406C1243.6 531.466 1232.55 531.466 1225.76 535.406C1218.96 539.346 1219.01 545.732 1225.83 549.672L1252.51 565.071C1259.36 569.01 1259.39 575.422 1252.59 579.362L1119.82 656.537C1113.02 660.477 1101.97 660.477 1095.15 656.537L777.952 473.424C771.128 469.484 771.102 463.098 777.9 459.133L994.721 333.109C999.098 330.56 1005.48 329.555 1011.48 330.482L1279.52 371.4C1282.51 371.864 1285.24 372.739 1287.43 374.027L1434.82 459.133C1441.67 463.072 1441.7 469.484 1434.9 473.424L1301.75 550.805C1294.95 554.745 1283.9 554.745 1277.08 550.805L1250.4 535.406H1250.42ZM1132.28 495.673C1139.13 499.613 1150.18 499.613 1156.95 495.673C1163.72 491.733 1163.7 485.321 1156.87 481.381L1095.84 446.154C1089.02 442.214 1077.97 442.214 1071.17 446.154C1064.38 450.094 1064.43 456.48 1071.25 460.42L1132.28 495.647" fill="url(#paint9_linear_14_2383)" fill-opacity="0.4"/>
    <path d="M662.409 475.995L490.652 575.805C483.854 579.745 472.807 579.745 465.983 575.805L404.954 540.578C398.13 536.638 387.083 536.638 380.311 540.578C376.937 542.535 375.238 545.11 375.238 547.685L374.98 643.065L347.324 659.134C340.526 663.074 329.479 663.074 322.655 659.134L5.43338 475.995C2.00855 474.013 0.283257 471.412 0.283257 468.811L0 1465.95C0 1468.55 1.69954 1471.15 5.15012 1473.14L322.32 1656.25C329.17 1660.19 340.217 1660.19 346.99 1656.25L441.16 1601.53C444.533 1599.57 446.232 1597 446.232 1594.42L446.335 1561.77L465.674 1572.95C472.524 1576.89 483.571 1576.89 490.343 1572.95L662.1 1473.14C665.473 1471.18 667.173 1468.6 667.173 1466.03L667.482 468.914C667.482 471.489 665.782 474.038 662.409 476.021V475.995Z" fill="#00001C"/>
    <path d="M662.409 475.995L490.652 575.805C483.854 579.745 472.807 579.745 465.983 575.805L404.954 540.578C398.13 536.638 387.083 536.638 380.311 540.578C376.937 542.535 375.238 545.11 375.238 547.685L374.98 643.065L347.324 659.134C340.526 663.074 329.479 663.074 322.655 659.134L5.43338 475.995C2.00855 474.013 0.283257 471.412 0.283257 468.811L0 1465.95C0 1468.55 1.69954 1471.15 5.15012 1473.14L322.32 1656.25C329.17 1660.19 340.217 1660.19 346.99 1656.25L441.16 1601.53C444.533 1599.57 446.232 1597 446.232 1594.42L446.335 1561.77L465.674 1572.95C472.524 1576.89 483.571 1576.89 490.343 1572.95L662.1 1473.14C665.473 1471.18 667.173 1468.6 667.173 1466.03L667.482 468.914C667.482 471.489 665.782 474.038 662.409 476.021V475.995Z" fill="url(#paint10_linear_14_2383)" fill-opacity="0.3"/>
    <path d="M662.409 475.995L490.652 575.805C483.854 579.745 472.807 579.745 465.983 575.805L404.954 540.578C398.13 536.638 387.083 536.638 380.311 540.578C376.937 542.535 375.238 545.11 375.238 547.685L374.98 643.065L347.324 659.134C340.526 663.074 329.479 663.074 322.655 659.134L5.43338 475.995C2.00855 474.013 0.283257 471.412 0.283257 468.811L0 1465.95C0 1468.55 1.69954 1471.15 5.15012 1473.14L322.32 1656.25C329.17 1660.19 340.217 1660.19 346.99 1656.25L441.16 1601.53C444.533 1599.57 446.232 1597 446.232 1594.42L446.335 1561.77L465.674 1572.95C472.524 1576.89 483.571 1576.89 490.343 1572.95L662.1 1473.14C665.473 1471.18 667.173 1468.6 667.173 1466.03L667.482 468.914C667.482 471.489 665.782 474.038 662.409 476.021V475.995Z" fill="url(#paint11_linear_14_2383)" fill-opacity="0.3"/>
    <path d="M662.331 461.704C669.181 465.643 669.207 472.055 662.409 475.995L490.652 575.805C483.854 579.744 472.807 579.744 465.983 575.805L404.954 540.578C398.13 536.638 387.083 536.638 380.311 540.578C373.538 544.518 373.564 550.93 380.362 554.869L441.391 590.096C448.241 594.036 448.267 600.448 441.468 604.388L347.298 659.108C340.5 663.048 329.453 663.048 322.629 659.108L5.43326 475.995C-1.39065 472.055 -1.4164 465.669 5.38176 461.704L215.764 339.44C222.562 335.5 233.609 335.5 240.433 339.44L301.514 374.692C308.338 378.632 319.385 378.632 326.157 374.692C332.93 370.752 332.904 364.341 326.106 360.401L265.025 325.148C258.201 321.208 258.176 314.822 264.974 310.857L320.492 278.591C327.29 274.651 338.337 274.651 345.161 278.591L662.331 461.704Z" fill="#35374F"/>
    <path d="M662.331 461.704C669.181 465.643 669.207 472.055 662.409 475.995L490.652 575.805C483.854 579.744 472.807 579.744 465.983 575.805L404.954 540.578C398.13 536.638 387.083 536.638 380.311 540.578C373.538 544.518 373.564 550.93 380.362 554.869L441.391 590.096C448.241 594.036 448.267 600.448 441.468 604.388L347.298 659.108C340.5 663.048 329.453 663.048 322.629 659.108L5.43326 475.995C-1.39065 472.055 -1.4164 465.669 5.38176 461.704L215.764 339.44C222.562 335.5 233.609 335.5 240.433 339.44L301.514 374.692C308.338 378.632 319.385 378.632 326.157 374.692C332.93 370.752 332.904 364.341 326.106 360.401L265.025 325.148C258.201 321.208 258.176 314.822 264.974 310.857L320.492 278.591C327.29 274.651 338.337 274.651 345.161 278.591L662.331 461.704Z" fill="url(#paint12_linear_14_2383)" fill-opacity="0.2"/>
    <path d="M662.331 461.704C669.181 465.643 669.207 472.055 662.409 475.995L490.652 575.805C483.854 579.744 472.807 579.744 465.983 575.805L404.954 540.578C398.13 536.638 387.083 536.638 380.311 540.578C373.538 544.518 373.564 550.93 380.362 554.869L441.391 590.096C448.241 594.036 448.267 600.448 441.468 604.388L347.298 659.108C340.5 663.048 329.453 663.048 322.629 659.108L5.43326 475.995C-1.39065 472.055 -1.4164 465.669 5.38176 461.704L215.764 339.44C222.562 335.5 233.609 335.5 240.433 339.44L301.514 374.692C308.338 378.632 319.385 378.632 326.157 374.692C332.93 370.752 332.904 364.341 326.106 360.401L265.025 325.148C258.201 321.208 258.176 314.822 264.974 310.857L320.492 278.591C327.29 274.651 338.337 274.651 345.161 278.591L662.331 461.704Z" fill="#00001C"/>
    <path d="M662.331 461.704C669.181 465.643 669.207 472.055 662.409 475.995L490.652 575.805C483.854 579.744 472.807 579.744 465.983 575.805L404.954 540.578C398.13 536.638 387.083 536.638 380.311 540.578C373.538 544.518 373.564 550.93 380.362 554.869L441.391 590.096C448.241 594.036 448.267 600.448 441.468 604.388L347.298 659.108C340.5 663.048 329.453 663.048 322.629 659.108L5.43326 475.995C-1.39065 472.055 -1.4164 465.669 5.38176 461.704L215.764 339.44C222.562 335.5 233.609 335.5 240.433 339.44L301.514 374.692C308.338 378.632 319.385 378.632 326.157 374.692C332.93 370.752 332.904 364.341 326.106 360.401L265.025 325.148C258.201 321.208 258.176 314.822 264.974 310.857L320.492 278.591C327.29 274.651 338.337 274.651 345.161 278.591L662.331 461.704Z" fill="url(#paint13_linear_14_2383)" fill-opacity="0.4"/>
    <path d="M662.331 461.704C669.181 465.643 669.207 472.055 662.409 475.995L490.652 575.805C483.854 579.744 472.807 579.744 465.983 575.805L404.954 540.578C398.13 536.638 387.083 536.638 380.311 540.578C373.538 544.518 373.564 550.93 380.362 554.869L441.391 590.096C448.241 594.036 448.267 600.448 441.468 604.388L347.298 659.108C340.5 663.048 329.453 663.048 322.629 659.108L5.43326 475.995C-1.39065 472.055 -1.4164 465.669 5.38176 461.704L215.764 339.44C222.562 335.5 233.609 335.5 240.433 339.44L301.514 374.692C308.338 378.632 319.385 378.632 326.157 374.692C332.93 370.752 332.904 364.341 326.106 360.401L265.025 325.148C258.201 321.208 258.176 314.822 264.974 310.857L320.492 278.591C327.29 274.651 338.337 274.651 345.161 278.591L662.331 461.704Z" fill="url(#paint14_linear_14_2383)" fill-opacity="0.4"/>
    <path d="M957.639 812.455L736.107 941.182C729.309 945.122 718.261 945.122 711.438 941.182L394.293 758.07C390.842 756.087 389.143 753.486 389.143 750.859L388.834 1698.1C394.834 -370.503 384.534 1699.85 393.984 1705.31L711.154 1888.42C718.004 1892.36 729.051 1892.36 735.823 1888.42L957.356 1759.69C960.626 1757.79 962.403 1755.21 962.429 1752.58L962.738 805.348C962.738 807.974 960.961 810.549 957.665 812.455H957.639Z" fill="#00001C"/>
    <path d="M957.639 812.455L736.107 941.182C729.309 945.122 718.261 945.122 711.438 941.182L394.293 758.07C390.842 756.087 389.143 753.486 389.143 750.859L388.834 1698.1C394.834 -370.503 384.534 1699.85 393.984 1705.31L711.154 1888.42C718.004 1892.36 729.051 1892.36 735.823 1888.42L957.356 1759.69C960.626 1757.79 962.403 1755.21 962.429 1752.58L962.738 805.348C962.738 807.974 960.961 810.549 957.665 812.455H957.639Z" fill="url(#paint15_linear_14_2383)" fill-opacity="0.3"/>
    <path d="M957.639 812.455L736.107 941.182C729.309 945.122 718.261 945.122 711.438 941.182L394.293 758.07C390.842 756.087 389.143 753.486 389.143 750.859L388.834 1698.1C394.834 -370.503 384.534 1699.85 393.984 1705.31L711.154 1888.42C718.004 1892.36 729.051 1892.36 735.823 1888.42L957.356 1759.69C960.626 1757.79 962.403 1755.21 962.429 1752.58L962.738 805.348C962.738 807.974 960.961 810.549 957.665 812.455H957.639Z" fill="url(#paint16_linear_14_2383)" fill-opacity="0.3"/>
    <path d="M888.885 650.097C891.074 651.358 892.645 652.929 893.443 654.654L962.12 802.721C963.716 806.197 962.017 809.905 957.639 812.454L736.107 941.182C729.309 945.121 718.262 945.121 711.438 941.182L394.293 758.069C387.443 754.129 387.418 747.717 394.216 743.777L488.386 689.057C495.158 685.117 506.205 685.117 513.055 689.057L574.058 724.284C580.908 728.224 591.955 728.224 598.727 724.284C605.5 720.344 605.474 713.932 598.65 709.993L537.647 674.766C530.797 670.826 530.771 664.414 537.57 660.474L709.3 560.665C716.099 556.725 727.146 556.725 733.969 560.665L888.885 650.097V650.097Z" fill="#35374F"/>
    <path d="M888.885 650.097C891.074 651.358 892.645 652.929 893.443 654.654L962.12 802.721C963.716 806.197 962.017 809.905 957.639 812.454L736.107 941.182C729.309 945.121 718.262 945.121 711.438 941.182L394.293 758.069C387.443 754.129 387.418 747.717 394.216 743.777L488.386 689.057C495.158 685.117 506.205 685.117 513.055 689.057L574.058 724.284C580.908 728.224 591.955 728.224 598.727 724.284C605.5 720.344 605.474 713.932 598.65 709.993L537.647 674.766C530.797 670.826 530.771 664.414 537.57 660.474L709.3 560.665C716.099 556.725 727.146 556.725 733.969 560.665L888.885 650.097V650.097Z" fill="url(#paint17_linear_14_2383)" fill-opacity="0.2"/>
    <path d="M888.885 650.097C891.074 651.358 892.645 652.929 893.443 654.654L962.12 802.721C963.716 806.197 962.017 809.905 957.639 812.454L736.107 941.182C729.309 945.121 718.262 945.121 711.438 941.182L394.293 758.069C387.443 754.129 387.418 747.717 394.216 743.777L488.386 689.057C495.158 685.117 506.205 685.117 513.055 689.057L574.058 724.284C580.908 728.224 591.955 728.224 598.727 724.284C605.5 720.344 605.474 713.932 598.65 709.993L537.647 674.766C530.797 670.826 530.771 664.414 537.57 660.474L709.3 560.665C716.099 556.725 727.146 556.725 733.969 560.665L888.885 650.097V650.097Z" fill="#00001C"/>
    <path d="M888.885 650.097C891.074 651.358 892.645 652.929 893.443 654.654L962.12 802.721C963.716 806.197 962.017 809.905 957.639 812.454L736.107 941.182C729.309 945.121 718.262 945.121 711.438 941.182L394.293 758.069C387.443 754.129 387.418 747.717 394.216 743.777L488.386 689.057C495.158 685.117 506.205 685.117 513.055 689.057L574.058 724.284C580.908 728.224 591.955 728.224 598.727 724.284C605.5 720.344 605.474 713.932 598.65 709.993L537.647 674.766C530.797 670.826 530.771 664.414 537.57 660.474L709.3 560.665C716.099 556.725 727.146 556.725 733.969 560.665L888.885 650.097V650.097Z" fill="url(#paint18_linear_14_2383)" fill-opacity="0.4"/>
    <path d="M888.885 650.097C891.074 651.358 892.645 652.929 893.443 654.654L962.12 802.721C963.716 806.197 962.017 809.905 957.639 812.454L736.107 941.182C729.309 945.121 718.262 945.121 711.438 941.182L394.293 758.069C387.443 754.129 387.418 747.717 394.216 743.777L488.386 689.057C495.158 685.117 506.205 685.117 513.055 689.057L574.058 724.284C580.908 728.224 591.955 728.224 598.727 724.284C605.5 720.344 605.474 713.932 598.65 709.993L537.647 674.766C530.797 670.826 530.771 664.414 537.57 660.474L709.3 560.665C716.099 556.725 727.146 556.725 733.969 560.665L888.885 650.097V650.097Z" fill="url(#paint19_linear_14_2383)" fill-opacity="0.4"/>
    <defs>
        <linearGradient id="paint0_linear_14_2383" x1="388.74" y1="433.26" x2="755.709" y2="301.947" gradientUnits="userSpaceOnUse">
            <stop stop-color="#70FBFB"/>
            <stop offset="1" stop-color="#70FBFB" stop-opacity="0"/>
        </linearGradient>
        <linearGradient id="paint1_linear_14_2383" x1="1176.61" y1="420.989" x2="885.498" y2="527.109" gradientUnits="userSpaceOnUse">
            <stop stop-color="#FF95E7"/>
            <stop offset="1" stop-color="#FF95E7" stop-opacity="0"/>
        </linearGradient>
        <linearGradient id="paint2_linear_14_2383" x1="722.729" y1="0.672974" x2="722.729" y2="387.125" gradientUnits="userSpaceOnUse">
            <stop stop-color="white"/>
            <stop offset="1" stop-color="white" stop-opacity="0"/>
        </linearGradient>
        <linearGradient id="paint3_linear_14_2383" x1="417.874" y1="174.107" x2="890.761" y2="174.107" gradientUnits="userSpaceOnUse">
            <stop stop-color="#70FBFB"/>
            <stop offset="1" stop-color="#70FBFB" stop-opacity="0"/>
        </linearGradient>
        <linearGradient id="paint4_linear_14_2383" x1="1040.09" y1="144.475" x2="557.723" y2="238.098" gradientUnits="userSpaceOnUse">
            <stop stop-color="#FF95E7"/>
            <stop offset="1" stop-color="#FF95E7" stop-opacity="0"/>
        </linearGradient>
        <linearGradient id="paint5_linear_14_2383" x1="772.425" y1="762.126" x2="1154.37" y2="651.552" gradientUnits="userSpaceOnUse">
            <stop stop-color="#70FBFB"/>
            <stop offset="1" stop-color="#70FBFB" stop-opacity="0"/>
        </linearGradient>
        <linearGradient id="paint6_linear_14_2383" x1="1560.3" y1="746.959" x2="1256.89" y2="836.441" gradientUnits="userSpaceOnUse">
            <stop stop-color="#FF95E7"/>
            <stop offset="1" stop-color="#FF95E7" stop-opacity="0"/>
        </linearGradient>
        <linearGradient id="paint7_linear_14_2383" x1="1106.4" y1="330.143" x2="1106.4" y2="659.492" gradientUnits="userSpaceOnUse">
            <stop stop-color="white"/>
            <stop offset="1" stop-color="white" stop-opacity="0"/>
        </linearGradient>
        <linearGradient id="paint8_linear_14_2383" x1="801.555" y1="477.95" x2="1274.43" y2="477.95" gradientUnits="userSpaceOnUse">
            <stop stop-color="#70FBFB"/>
            <stop offset="1" stop-color="#70FBFB" stop-opacity="0"/>
        </linearGradient>
        <linearGradient id="paint9_linear_14_2383" x1="1423.75" y1="452.697" x2="947.907" y2="561.063" gradientUnits="userSpaceOnUse">
            <stop stop-color="#FF95E7"/>
            <stop offset="1" stop-color="#FF95E7" stop-opacity="0"/>
        </linearGradient>
        <linearGradient id="paint10_linear_14_2383" x1="-0.0935297" y1="718.948" x2="370.413" y2="592.068" gradientUnits="userSpaceOnUse">
            <stop stop-color="#70FBFB"/>
            <stop offset="1" stop-color="#70FBFB" stop-opacity="0"/>
        </linearGradient>
        <linearGradient id="paint11_linear_14_2383" x1="787.778" y1="706.127" x2="493.763" y2="808.697" gradientUnits="userSpaceOnUse">
            <stop stop-color="#FF95E7"/>
            <stop offset="1" stop-color="#FF95E7" stop-opacity="0"/>
        </linearGradient>
        <linearGradient id="paint12_linear_14_2383" x1="333.894" y1="275.636" x2="333.894" y2="662.063" gradientUnits="userSpaceOnUse">
            <stop stop-color="white"/>
            <stop offset="1" stop-color="white" stop-opacity="0"/>
        </linearGradient>
        <linearGradient id="paint13_linear_14_2383" x1="29.037" y1="449.059" x2="501.926" y2="449.059" gradientUnits="userSpaceOnUse">
            <stop stop-color="#70FBFB"/>
            <stop offset="1" stop-color="#70FBFB" stop-opacity="0"/>
        </linearGradient>
        <linearGradient id="paint14_linear_14_2383" x1="651.259" y1="419.429" x2="168.889" y2="513.059" gradientUnits="userSpaceOnUse">
            <stop stop-color="#FF95E7"/>
            <stop offset="1" stop-color="#FF95E7" stop-opacity="0"/>
        </linearGradient>
        <linearGradient id="paint15_linear_14_2383" x1="388.753" y1="990.515" x2="713.961" y2="890.573" gradientUnits="userSpaceOnUse">
            <stop stop-color="#70FBFB"/>
            <stop offset="1" stop-color="#70FBFB" stop-opacity="0"/>
        </linearGradient>
        <linearGradient id="paint16_linear_14_2383" x1="1066.17" y1="978.231" x2="807.92" y2="1059.08" gradientUnits="userSpaceOnUse">
            <stop stop-color="#FF95E7"/>
            <stop offset="1" stop-color="#FF95E7" stop-opacity="0"/>
        </linearGradient>
        <linearGradient id="paint17_linear_14_2383" x1="675.923" y1="557.71" x2="675.923" y2="944.136" gradientUnits="userSpaceOnUse">
            <stop stop-color="white"/>
            <stop offset="1" stop-color="white" stop-opacity="0"/>
        </linearGradient>
        <linearGradient id="paint18_linear_14_2383" x1="413.842" y1="731.132" x2="820.378" y2="731.132" gradientUnits="userSpaceOnUse">
            <stop stop-color="#70FBFB"/>
            <stop offset="1" stop-color="#70FBFB" stop-opacity="0"/>
        </linearGradient>
        <linearGradient id="paint19_linear_14_2383" x1="948.757" y1="701.503" x2="530.104" y2="771.362" gradientUnits="userSpaceOnUse">
            <stop stop-color="#FF95E7"/>
            <stop offset="1" stop-color="#FF95E7" stop-opacity="0"/>
        </linearGradient>
    </defs>
</svg>
