<svg width="1440" height="1002" viewBox="0 0 1440 1002" fill="none" xmlns="http://www.w3.org/2000/svg">
    <g clip-path="url(#clip0_254_7724)">
        <g opacity="0.3">
            <g clip-path="url(#clip1_254_7724)">
                <path d="M680.846 266.885C687.645 262.945 698.692 262.945 705.516 266.885L766.519 302.112C769.969 304.095 771.669 306.696 771.669 309.322L771.978 222.569C771.978 219.968 770.278 217.367 766.828 215.358L705.825 180.132C698.975 176.192 687.928 176.192 681.155 180.132C677.782 182.089 676.108 184.638 676.108 187.213L675.799 273.967C675.799 271.392 677.499 268.842 680.846 266.885Z" fill="url(#paint0_linear_254_7724)"/>
                <path d="M1051.24 211.033L736.133 394.145C729.335 398.085 718.288 398.085 711.464 394.145L394.293 211.059C390.843 209.076 389.143 206.475 389.143 203.874L388.834 1149.85C388.834 1152.45 390.534 1155.05 393.984 1157.03L711.155 1340.15C718.004 1344.09 729.051 1344.09 735.824 1340.15L1050.93 1157.01C1054.31 1155.05 1056.01 1152.48 1056.01 1149.9L1056.32 203.926C1056.32 206.501 1054.62 209.05 1051.24 211.033V211.033Z" fill="#00001C"/>
                <path d="M1051.24 211.033L736.133 394.145C729.335 398.085 718.288 398.085 711.464 394.145L394.293 211.059C390.843 209.076 389.143 206.475 389.143 203.874L388.834 1149.85C388.834 1152.45 390.534 1155.05 393.984 1157.03L711.155 1340.15C718.004 1344.09 729.051 1344.09 735.824 1340.15L1050.93 1157.01C1054.31 1155.05 1056.01 1152.48 1056.01 1149.9L1056.32 203.926C1056.32 206.501 1054.62 209.05 1051.24 211.033V211.033Z" fill="url(#paint1_linear_254_7724)" fill-opacity="0.3"/>
                <path d="M1051.24 211.033L736.133 394.145C729.335 398.085 718.288 398.085 711.464 394.145L394.293 211.059C390.843 209.076 389.143 206.475 389.143 203.874L388.834 1149.85C388.834 1152.45 390.534 1155.05 393.984 1157.03L711.155 1340.15C718.004 1344.09 729.051 1344.09 735.824 1340.15L1050.93 1157.01C1054.31 1155.05 1056.01 1152.48 1056.01 1149.9L1056.32 203.926C1056.32 206.501 1054.62 209.05 1051.24 211.033V211.033Z" fill="url(#paint2_linear_254_7724)" fill-opacity="0.3"/>
                <path d="M1051.17 196.74C1058.02 200.68 1058.04 207.092 1051.24 211.032L736.133 394.17C729.335 398.11 718.288 398.11 711.464 394.17L394.293 211.058C387.444 207.118 387.418 200.706 394.216 196.766L709.326 13.6278C716.125 9.68797 727.172 9.68797 733.995 13.6278L1051.17 196.74ZM742.261 229.624C749.111 233.564 760.158 233.564 766.931 229.624C773.703 225.684 773.677 219.272 766.853 215.332L705.85 180.106C699 176.166 687.953 176.166 681.181 180.106C674.409 184.045 674.434 190.432 681.284 194.397L742.287 229.624" fill="#35374F"/>
                <path d="M1051.17 196.74C1058.02 200.68 1058.04 207.092 1051.24 211.032L736.133 394.17C729.335 398.11 718.288 398.11 711.464 394.17L394.293 211.058C387.444 207.118 387.418 200.706 394.216 196.766L709.326 13.6278C716.125 9.68797 727.172 9.68797 733.995 13.6278L1051.17 196.74ZM742.261 229.624C749.111 233.564 760.158 233.564 766.931 229.624C773.703 225.684 773.677 219.272 766.853 215.332L705.85 180.106C699 176.166 687.953 176.166 681.181 180.106C674.409 184.045 674.434 190.432 681.284 194.397L742.287 229.624" fill="url(#paint3_linear_254_7724)" fill-opacity="0.2"/>
                <path d="M1051.17 196.74C1058.02 200.68 1058.04 207.092 1051.24 211.032L736.133 394.17C729.335 398.11 718.288 398.11 711.464 394.17L394.293 211.058C387.444 207.118 387.418 200.706 394.216 196.766L709.326 13.6278C716.125 9.68797 727.172 9.68797 733.995 13.6278L1051.17 196.74ZM742.261 229.624C749.111 233.564 760.158 233.564 766.931 229.624C773.703 225.684 773.677 219.272 766.853 215.332L705.85 180.106C699 176.166 687.953 176.166 681.181 180.106C674.409 184.045 674.434 190.432 681.284 194.397L742.287 229.624" fill="#00001C"/>
                <path d="M1051.17 196.74C1058.02 200.68 1058.04 207.092 1051.24 211.032L736.133 394.17C729.335 398.11 718.288 398.11 711.464 394.17L394.293 211.058C387.444 207.118 387.418 200.706 394.216 196.766L709.326 13.6278C716.125 9.68797 727.172 9.68797 733.995 13.6278L1051.17 196.74ZM742.261 229.624C749.111 233.564 760.158 233.564 766.931 229.624C773.703 225.684 773.677 219.272 766.853 215.332L705.85 180.106C699 176.166 687.953 176.166 681.181 180.106C674.409 184.045 674.434 190.432 681.284 194.397L742.287 229.624" fill="url(#paint4_linear_254_7724)" fill-opacity="0.4"/>
                <path d="M1051.17 196.74C1058.02 200.68 1058.04 207.092 1051.24 211.032L736.133 394.17C729.335 398.11 718.288 398.11 711.464 394.17L394.293 211.058C387.444 207.118 387.418 200.706 394.216 196.766L709.326 13.6278C716.125 9.68797 727.172 9.68797 733.995 13.6278L1051.17 196.74ZM742.261 229.624C749.111 233.564 760.158 233.564 766.931 229.624C773.703 225.684 773.677 219.272 766.853 215.332L705.85 180.106C699 176.166 687.953 176.166 681.181 180.106C674.409 184.045 674.434 190.432 681.284 194.397L742.287 229.624" fill="url(#paint5_linear_254_7724)" fill-opacity="0.4"/>
            </g>
            <g clip-path="url(#clip2_254_7724)">
                <path d="M1070.87 584.058C1077.66 580.118 1088.71 580.118 1095.53 584.058L1156.56 619.284C1160.01 621.267 1161.71 623.868 1161.71 626.495L1162.02 498.591C1162.02 495.991 1160.32 493.39 1156.87 491.381L1095.84 456.154C1089.02 452.214 1077.97 452.214 1071.17 456.154C1067.8 458.111 1066.13 460.686 1066.1 463.236L1065.79 591.139C1065.79 588.564 1067.49 586.015 1070.87 584.058V584.058Z" fill="url(#paint6_linear_254_7724)"/>
                <path d="M1434.93 483.398L1301.77 560.778C1294.97 564.718 1283.93 564.718 1277.1 560.778L1250.42 545.38C1243.6 541.44 1232.55 541.44 1225.75 545.38C1222.38 547.337 1220.71 549.912 1220.68 552.461L1220.53 607.954L1119.79 666.485C1112.99 670.425 1101.95 670.425 1095.12 666.485L777.952 483.424C774.527 481.441 772.802 478.84 772.802 476.239L772.518 1691.1C772.518 1693.7 774.218 1696.3 777.668 1698.29L1094.84 1881.4C1101.69 1885.34 1112.74 1885.34 1119.51 1881.4L1252.28 1804.22C1255.65 1802.27 1257.35 1799.69 1257.35 1797.12L1257.45 1764.47L1276.79 1775.64C1283.64 1779.58 1294.69 1779.58 1301.46 1775.64L1434.62 1698.26C1437.99 1696.3 1439.69 1693.73 1439.69 1691.15L1440 476.291C1440 478.866 1438.3 481.415 1434.93 483.398V483.398Z" fill="#00001C"/>
                <path d="M1434.93 483.398L1301.77 560.778C1294.97 564.718 1283.93 564.718 1277.1 560.778L1250.42 545.38C1243.6 541.44 1232.55 541.44 1225.75 545.38C1222.38 547.337 1220.71 549.912 1220.68 552.461L1220.53 607.954L1119.79 666.485C1112.99 670.425 1101.95 670.425 1095.12 666.485L777.952 483.424C774.527 481.441 772.802 478.84 772.802 476.239L772.518 1691.1C772.518 1693.7 774.218 1696.3 777.668 1698.29L1094.84 1881.4C1101.69 1885.34 1112.74 1885.34 1119.51 1881.4L1252.28 1804.22C1255.65 1802.27 1257.35 1799.69 1257.35 1797.12L1257.45 1764.47L1276.79 1775.64C1283.64 1779.58 1294.69 1779.58 1301.46 1775.64L1434.62 1698.26C1437.99 1696.3 1439.69 1693.73 1439.69 1691.15L1440 476.291C1440 478.866 1438.3 481.415 1434.93 483.398V483.398Z" fill="url(#paint7_linear_254_7724)" fill-opacity="0.3"/>
                <path d="M1434.93 483.398L1301.77 560.778C1294.97 564.718 1283.93 564.718 1277.1 560.778L1250.42 545.38C1243.6 541.44 1232.55 541.44 1225.75 545.38C1222.38 547.337 1220.71 549.912 1220.68 552.461L1220.53 607.954L1119.79 666.485C1112.99 670.425 1101.95 670.425 1095.12 666.485L777.952 483.424C774.527 481.441 772.802 478.84 772.802 476.239L772.518 1691.1C772.518 1693.7 774.218 1696.3 777.668 1698.29L1094.84 1881.4C1101.69 1885.34 1112.74 1885.34 1119.51 1881.4L1252.28 1804.22C1255.65 1802.27 1257.35 1799.69 1257.35 1797.12L1257.45 1764.47L1276.79 1775.64C1283.64 1779.58 1294.69 1779.58 1301.46 1775.64L1434.62 1698.26C1437.99 1696.3 1439.69 1693.73 1439.69 1691.15L1440 476.291C1440 478.866 1438.3 481.415 1434.93 483.398V483.398Z" fill="url(#paint8_linear_254_7724)" fill-opacity="0.3"/>
                <path d="M1250.42 545.406C1243.6 541.466 1232.55 541.466 1225.76 545.406C1218.96 549.346 1219.01 555.732 1225.83 559.672L1252.51 575.071C1259.36 579.011 1259.39 585.422 1252.59 589.362L1119.82 666.537C1113.02 670.477 1101.97 670.477 1095.15 666.537L777.952 483.424C771.128 479.484 771.102 473.098 777.9 469.133L994.721 343.109C999.098 340.56 1005.48 339.556 1011.48 340.483L1279.52 381.4C1282.51 381.864 1285.24 382.739 1287.43 384.027L1434.82 469.133C1441.67 473.072 1441.7 479.484 1434.9 483.424L1301.75 560.805C1294.95 564.745 1283.9 564.745 1277.08 560.805L1250.4 545.406H1250.42ZM1132.28 505.673C1139.13 509.613 1150.18 509.613 1156.95 505.673C1163.72 501.733 1163.7 495.321 1156.87 491.381L1095.84 456.154C1089.02 452.214 1077.97 452.214 1071.17 456.154C1064.38 460.094 1064.43 466.48 1071.25 470.42L1132.28 505.647" fill="#35374F"/>
                <path d="M1250.42 545.406C1243.6 541.466 1232.55 541.466 1225.76 545.406C1218.96 549.346 1219.01 555.732 1225.83 559.672L1252.51 575.071C1259.36 579.011 1259.39 585.422 1252.59 589.362L1119.82 666.537C1113.02 670.477 1101.97 670.477 1095.15 666.537L777.952 483.424C771.128 479.484 771.102 473.098 777.9 469.133L994.721 343.109C999.098 340.56 1005.48 339.556 1011.48 340.483L1279.52 381.4C1282.51 381.864 1285.24 382.739 1287.43 384.027L1434.82 469.133C1441.67 473.072 1441.7 479.484 1434.9 483.424L1301.75 560.805C1294.95 564.745 1283.9 564.745 1277.08 560.805L1250.4 545.406H1250.42ZM1132.28 505.673C1139.13 509.613 1150.18 509.613 1156.95 505.673C1163.72 501.733 1163.7 495.321 1156.87 491.381L1095.84 456.154C1089.02 452.214 1077.97 452.214 1071.17 456.154C1064.38 460.094 1064.43 466.48 1071.25 470.42L1132.28 505.647" fill="url(#paint9_linear_254_7724)" fill-opacity="0.2"/>
                <path d="M1250.42 545.406C1243.6 541.466 1232.55 541.466 1225.76 545.406C1218.96 549.346 1219.01 555.732 1225.83 559.672L1252.51 575.071C1259.36 579.011 1259.39 585.422 1252.59 589.362L1119.82 666.537C1113.02 670.477 1101.97 670.477 1095.15 666.537L777.952 483.424C771.128 479.484 771.102 473.098 777.9 469.133L994.721 343.109C999.098 340.56 1005.48 339.556 1011.48 340.483L1279.52 381.4C1282.51 381.864 1285.24 382.739 1287.43 384.027L1434.82 469.133C1441.67 473.072 1441.7 479.484 1434.9 483.424L1301.75 560.805C1294.95 564.745 1283.9 564.745 1277.08 560.805L1250.4 545.406H1250.42ZM1132.28 505.673C1139.13 509.613 1150.18 509.613 1156.95 505.673C1163.72 501.733 1163.7 495.321 1156.87 491.381L1095.84 456.154C1089.02 452.214 1077.97 452.214 1071.17 456.154C1064.38 460.094 1064.43 466.48 1071.25 470.42L1132.28 505.647" fill="#00001C"/>
                <path d="M1250.42 545.406C1243.6 541.466 1232.55 541.466 1225.76 545.406C1218.96 549.346 1219.01 555.732 1225.83 559.672L1252.51 575.071C1259.36 579.011 1259.39 585.422 1252.59 589.362L1119.82 666.537C1113.02 670.477 1101.97 670.477 1095.15 666.537L777.952 483.424C771.128 479.484 771.102 473.098 777.9 469.133L994.721 343.109C999.098 340.56 1005.48 339.556 1011.48 340.483L1279.52 381.4C1282.51 381.864 1285.24 382.739 1287.43 384.027L1434.82 469.133C1441.67 473.072 1441.7 479.484 1434.9 483.424L1301.75 560.805C1294.95 564.745 1283.9 564.745 1277.08 560.805L1250.4 545.406H1250.42ZM1132.28 505.673C1139.13 509.613 1150.18 509.613 1156.95 505.673C1163.72 501.733 1163.7 495.321 1156.87 491.381L1095.84 456.154C1089.02 452.214 1077.97 452.214 1071.17 456.154C1064.38 460.094 1064.43 466.48 1071.25 470.42L1132.28 505.647" fill="url(#paint10_linear_254_7724)" fill-opacity="0.4"/>
                <path d="M1250.42 545.406C1243.6 541.466 1232.55 541.466 1225.76 545.406C1218.96 549.346 1219.01 555.732 1225.83 559.672L1252.51 575.071C1259.36 579.011 1259.39 585.422 1252.59 589.362L1119.82 666.537C1113.02 670.477 1101.97 670.477 1095.15 666.537L777.952 483.424C771.128 479.484 771.102 473.098 777.9 469.133L994.721 343.109C999.098 340.56 1005.48 339.556 1011.48 340.483L1279.52 381.4C1282.51 381.864 1285.24 382.739 1287.43 384.027L1434.82 469.133C1441.67 473.072 1441.7 479.484 1434.9 483.424L1301.75 560.805C1294.95 564.745 1283.9 564.745 1277.08 560.805L1250.4 545.406H1250.42ZM1132.28 505.673C1139.13 509.613 1150.18 509.613 1156.95 505.673C1163.72 501.733 1163.7 495.321 1156.87 491.381L1095.84 456.154C1089.02 452.214 1077.97 452.214 1071.17 456.154C1064.38 460.094 1064.43 466.48 1071.25 470.42L1132.28 505.647" fill="url(#paint11_linear_254_7724)" fill-opacity="0.4"/>
            </g>
            <g clip-path="url(#clip3_254_7724)">
                <path d="M264.717 474.783L325.797 510.036C329.222 512.018 330.947 514.619 330.947 517.22L331.256 377.585C331.256 374.984 329.557 372.383 326.106 370.401L265.026 335.148C261.601 333.165 259.875 330.564 259.875 327.964L259.566 467.599C259.566 470.199 261.266 472.8 264.717 474.783Z" fill="url(#paint12_linear_254_7724)"/>
                <path d="M662.409 485.995L490.652 585.805C483.854 589.745 472.807 589.745 465.983 585.805L404.954 550.578C398.13 546.638 387.083 546.638 380.311 550.578C376.937 552.535 375.238 555.11 375.238 557.685L374.98 653.065L347.324 669.134C340.526 673.074 329.479 673.074 322.655 669.134L5.43338 485.995C2.00855 484.012 0.283257 481.412 0.283257 478.811L0 1475.95C0 1478.55 1.69954 1481.15 5.15012 1483.14L322.32 1666.25C329.17 1670.19 340.217 1670.19 346.99 1666.25L441.16 1611.53C444.533 1609.57 446.232 1607 446.232 1604.42L446.335 1571.77L465.674 1582.95C472.524 1586.89 483.571 1586.89 490.343 1582.95L662.1 1483.14C665.473 1481.18 667.173 1478.6 667.173 1476.03L667.482 478.914C667.482 481.489 665.782 484.038 662.409 486.021V485.995Z" fill="#00001C"/>
                <path d="M662.409 485.995L490.652 585.805C483.854 589.745 472.807 589.745 465.983 585.805L404.954 550.578C398.13 546.638 387.083 546.638 380.311 550.578C376.937 552.535 375.238 555.11 375.238 557.685L374.98 653.065L347.324 669.134C340.526 673.074 329.479 673.074 322.655 669.134L5.43338 485.995C2.00855 484.012 0.283257 481.412 0.283257 478.811L0 1475.95C0 1478.55 1.69954 1481.15 5.15012 1483.14L322.32 1666.25C329.17 1670.19 340.217 1670.19 346.99 1666.25L441.16 1611.53C444.533 1609.57 446.232 1607 446.232 1604.42L446.335 1571.77L465.674 1582.95C472.524 1586.89 483.571 1586.89 490.343 1582.95L662.1 1483.14C665.473 1481.18 667.173 1478.6 667.173 1476.03L667.482 478.914C667.482 481.489 665.782 484.038 662.409 486.021V485.995Z" fill="url(#paint13_linear_254_7724)" fill-opacity="0.3"/>
                <path d="M662.409 485.995L490.652 585.805C483.854 589.745 472.807 589.745 465.983 585.805L404.954 550.578C398.13 546.638 387.083 546.638 380.311 550.578C376.937 552.535 375.238 555.11 375.238 557.685L374.98 653.065L347.324 669.134C340.526 673.074 329.479 673.074 322.655 669.134L5.43338 485.995C2.00855 484.012 0.283257 481.412 0.283257 478.811L0 1475.95C0 1478.55 1.69954 1481.15 5.15012 1483.14L322.32 1666.25C329.17 1670.19 340.217 1670.19 346.99 1666.25L441.16 1611.53C444.533 1609.57 446.232 1607 446.232 1604.42L446.335 1571.77L465.674 1582.95C472.524 1586.89 483.571 1586.89 490.343 1582.95L662.1 1483.14C665.473 1481.18 667.173 1478.6 667.173 1476.03L667.482 478.914C667.482 481.489 665.782 484.038 662.409 486.021V485.995Z" fill="url(#paint14_linear_254_7724)" fill-opacity="0.3"/>
                <path d="M662.331 471.704C669.181 475.643 669.207 482.055 662.409 485.995L490.652 585.805C483.854 589.744 472.807 589.744 465.983 585.805L404.954 550.578C398.13 546.638 387.083 546.638 380.311 550.578C373.538 554.518 373.564 560.929 380.362 564.869L441.391 600.096C448.241 604.036 448.266 610.448 441.468 614.388L347.298 669.108C340.5 673.048 329.453 673.048 322.629 669.108L5.43314 485.995C-1.39077 482.055 -1.41652 475.669 5.38164 471.704L215.764 349.44C222.562 345.5 233.609 345.5 240.433 349.44L301.514 384.692C308.338 388.632 319.385 388.632 326.157 384.692C332.929 380.752 332.904 374.34 326.106 370.401L265.025 335.148C258.201 331.208 258.175 324.822 264.974 320.856L320.492 288.591C327.29 284.651 338.337 284.651 345.161 288.591L662.331 471.704Z" fill="#35374F"/>
                <path d="M662.331 471.704C669.181 475.643 669.207 482.055 662.409 485.995L490.652 585.805C483.854 589.744 472.807 589.744 465.983 585.805L404.954 550.578C398.13 546.638 387.083 546.638 380.311 550.578C373.538 554.518 373.564 560.929 380.362 564.869L441.391 600.096C448.241 604.036 448.266 610.448 441.468 614.388L347.298 669.108C340.5 673.048 329.453 673.048 322.629 669.108L5.43314 485.995C-1.39077 482.055 -1.41652 475.669 5.38164 471.704L215.764 349.44C222.562 345.5 233.609 345.5 240.433 349.44L301.514 384.692C308.338 388.632 319.385 388.632 326.157 384.692C332.929 380.752 332.904 374.34 326.106 370.401L265.025 335.148C258.201 331.208 258.175 324.822 264.974 320.856L320.492 288.591C327.29 284.651 338.337 284.651 345.161 288.591L662.331 471.704Z" fill="url(#paint15_linear_254_7724)" fill-opacity="0.2"/>
                <path d="M662.331 471.704C669.181 475.643 669.207 482.055 662.409 485.995L490.652 585.805C483.854 589.744 472.807 589.744 465.983 585.805L404.954 550.578C398.13 546.638 387.083 546.638 380.311 550.578C373.538 554.518 373.564 560.929 380.362 564.869L441.391 600.096C448.241 604.036 448.266 610.448 441.468 614.388L347.298 669.108C340.5 673.048 329.453 673.048 322.629 669.108L5.43314 485.995C-1.39077 482.055 -1.41652 475.669 5.38164 471.704L215.764 349.44C222.562 345.5 233.609 345.5 240.433 349.44L301.514 384.692C308.338 388.632 319.385 388.632 326.157 384.692C332.929 380.752 332.904 374.34 326.106 370.401L265.025 335.148C258.201 331.208 258.175 324.822 264.974 320.856L320.492 288.591C327.29 284.651 338.337 284.651 345.161 288.591L662.331 471.704Z" fill="#00001C"/>
                <path d="M662.331 471.704C669.181 475.643 669.207 482.055 662.409 485.995L490.652 585.805C483.854 589.744 472.807 589.744 465.983 585.805L404.954 550.578C398.13 546.638 387.083 546.638 380.311 550.578C373.538 554.518 373.564 560.929 380.362 564.869L441.391 600.096C448.241 604.036 448.266 610.448 441.468 614.388L347.298 669.108C340.5 673.048 329.453 673.048 322.629 669.108L5.43314 485.995C-1.39077 482.055 -1.41652 475.669 5.38164 471.704L215.764 349.44C222.562 345.5 233.609 345.5 240.433 349.44L301.514 384.692C308.338 388.632 319.385 388.632 326.157 384.692C332.929 380.752 332.904 374.34 326.106 370.401L265.025 335.148C258.201 331.208 258.175 324.822 264.974 320.856L320.492 288.591C327.29 284.651 338.337 284.651 345.161 288.591L662.331 471.704Z" fill="url(#paint16_linear_254_7724)" fill-opacity="0.4"/>
                <path d="M662.331 471.704C669.181 475.643 669.207 482.055 662.409 485.995L490.652 585.805C483.854 589.744 472.807 589.744 465.983 585.805L404.954 550.578C398.13 546.638 387.083 546.638 380.311 550.578C373.538 554.518 373.564 560.929 380.362 564.869L441.391 600.096C448.241 604.036 448.266 610.448 441.468 614.388L347.298 669.108C340.5 673.048 329.453 673.048 322.629 669.108L5.43314 485.995C-1.39077 482.055 -1.41652 475.669 5.38164 471.704L215.764 349.44C222.562 345.5 233.609 345.5 240.433 349.44L301.514 384.692C308.338 388.632 319.385 388.632 326.157 384.692C332.929 380.752 332.904 374.34 326.106 370.401L265.025 335.148C258.201 331.208 258.175 324.822 264.974 320.856L320.492 288.591C327.29 284.651 338.337 284.651 345.161 288.591L662.331 471.704Z" fill="url(#paint17_linear_254_7724)" fill-opacity="0.4"/>
            </g>
            <g clip-path="url(#clip4_254_7724)">
                <path d="M537.364 853.999L598.367 889.226C601.817 891.209 603.517 893.81 603.517 896.436L603.826 727.203C603.826 724.602 602.126 722.002 598.676 719.993L537.673 684.766C534.222 682.783 532.522 680.183 532.522 677.556L532.213 846.789C532.213 849.39 533.913 851.991 537.364 853.973V853.999Z" fill="url(#paint18_linear_254_7724)"/>
                <path d="M957.64 822.455L736.107 951.182C729.309 955.122 718.262 955.122 711.438 951.182L394.293 768.07C390.843 766.087 389.143 763.486 389.143 760.859L388.834 1708.1C394.834 -360.503 384.534 1709.85 393.984 1715.31L711.155 1898.42C718.004 1902.36 729.051 1902.36 735.824 1898.42L957.356 1769.69C960.627 1767.79 962.403 1765.21 962.429 1762.58L962.738 815.348C962.738 817.974 960.961 820.549 957.665 822.455H957.64Z" fill="#00001C"/>
                <path d="M957.64 822.455L736.107 951.182C729.309 955.122 718.262 955.122 711.438 951.182L394.293 768.07C390.843 766.087 389.143 763.486 389.143 760.859L388.834 1708.1C394.834 -360.503 384.534 1709.85 393.984 1715.31L711.155 1898.42C718.004 1902.36 729.051 1902.36 735.824 1898.42L957.356 1769.69C960.627 1767.79 962.403 1765.21 962.429 1762.58L962.738 815.348C962.738 817.974 960.961 820.549 957.665 822.455H957.64Z" fill="url(#paint19_linear_254_7724)" fill-opacity="0.3"/>
                <path d="M957.64 822.455L736.107 951.182C729.309 955.122 718.262 955.122 711.438 951.182L394.293 768.07C390.843 766.087 389.143 763.486 389.143 760.859L388.834 1708.1C394.834 -360.503 384.534 1709.85 393.984 1715.31L711.155 1898.42C718.004 1902.36 729.051 1902.36 735.824 1898.42L957.356 1769.69C960.627 1767.79 962.403 1765.21 962.429 1762.58L962.738 815.348C962.738 817.974 960.961 820.549 957.665 822.455H957.64Z" fill="url(#paint20_linear_254_7724)" fill-opacity="0.3"/>
                <path d="M888.885 660.097C891.074 661.358 892.645 662.929 893.443 664.654L962.12 812.72C963.717 816.197 962.017 819.905 957.64 822.454L736.107 951.181C729.309 955.121 718.262 955.121 711.438 951.181L394.293 768.069C387.444 764.129 387.418 757.717 394.216 753.777L488.386 699.057C495.159 695.117 506.206 695.117 513.055 699.057L574.058 734.284C580.908 738.224 591.955 738.224 598.727 734.284C605.5 730.344 605.474 723.932 598.65 719.992L537.647 684.766C530.797 680.826 530.772 674.414 537.57 670.474L709.301 570.665C716.099 566.725 727.146 566.725 733.97 570.665L888.885 660.097V660.097Z" fill="#35374F"/>
                <path d="M888.885 660.097C891.074 661.358 892.645 662.929 893.443 664.654L962.12 812.72C963.717 816.197 962.017 819.905 957.64 822.454L736.107 951.181C729.309 955.121 718.262 955.121 711.438 951.181L394.293 768.069C387.444 764.129 387.418 757.717 394.216 753.777L488.386 699.057C495.159 695.117 506.206 695.117 513.055 699.057L574.058 734.284C580.908 738.224 591.955 738.224 598.727 734.284C605.5 730.344 605.474 723.932 598.65 719.992L537.647 684.766C530.797 680.826 530.772 674.414 537.57 670.474L709.301 570.665C716.099 566.725 727.146 566.725 733.97 570.665L888.885 660.097V660.097Z" fill="url(#paint21_linear_254_7724)" fill-opacity="0.2"/>
                <path d="M888.885 660.097C891.074 661.358 892.645 662.929 893.443 664.654L962.12 812.72C963.717 816.197 962.017 819.905 957.64 822.454L736.107 951.181C729.309 955.121 718.262 955.121 711.438 951.181L394.293 768.069C387.444 764.129 387.418 757.717 394.216 753.777L488.386 699.057C495.159 695.117 506.206 695.117 513.055 699.057L574.058 734.284C580.908 738.224 591.955 738.224 598.727 734.284C605.5 730.344 605.474 723.932 598.65 719.992L537.647 684.766C530.797 680.826 530.772 674.414 537.57 670.474L709.301 570.665C716.099 566.725 727.146 566.725 733.97 570.665L888.885 660.097V660.097Z" fill="#00001C"/>
                <path d="M888.885 660.097C891.074 661.358 892.645 662.929 893.443 664.654L962.12 812.72C963.717 816.197 962.017 819.905 957.64 822.454L736.107 951.181C729.309 955.121 718.262 955.121 711.438 951.181L394.293 768.069C387.444 764.129 387.418 757.717 394.216 753.777L488.386 699.057C495.159 695.117 506.206 695.117 513.055 699.057L574.058 734.284C580.908 738.224 591.955 738.224 598.727 734.284C605.5 730.344 605.474 723.932 598.65 719.992L537.647 684.766C530.797 680.826 530.772 674.414 537.57 670.474L709.301 570.665C716.099 566.725 727.146 566.725 733.97 570.665L888.885 660.097V660.097Z" fill="url(#paint22_linear_254_7724)" fill-opacity="0.4"/>
                <path d="M888.885 660.097C891.074 661.358 892.645 662.929 893.443 664.654L962.12 812.72C963.717 816.197 962.017 819.905 957.64 822.454L736.107 951.181C729.309 955.121 718.262 955.121 711.438 951.181L394.293 768.069C387.444 764.129 387.418 757.717 394.216 753.777L488.386 699.057C495.159 695.117 506.206 695.117 513.055 699.057L574.058 734.284C580.908 738.224 591.955 738.224 598.727 734.284C605.5 730.344 605.474 723.932 598.65 719.992L537.647 684.766C530.797 680.826 530.772 674.414 537.57 670.474L709.301 570.665C716.099 566.725 727.146 566.725 733.97 570.665L888.885 660.097V660.097Z" fill="url(#paint23_linear_254_7724)" fill-opacity="0.4"/>
            </g>
        </g>
    </g>
    <defs>
        <linearGradient id="paint0_linear_254_7724" x1="723.89" y1="160.02" x2="723.89" y2="293.923" gradientUnits="userSpaceOnUse">
            <stop stop-color="#35374F"/>
            <stop offset="1" stop-color="#00001C"/>
        </linearGradient>
        <linearGradient id="paint1_linear_254_7724" x1="388.741" y1="443.26" x2="755.71" y2="311.947" gradientUnits="userSpaceOnUse">
            <stop stop-color="#70FBFB"/>
            <stop offset="1" stop-color="#70FBFB" stop-opacity="0"/>
        </linearGradient>
        <linearGradient id="paint2_linear_254_7724" x1="1176.61" y1="430.989" x2="885.499" y2="537.109" gradientUnits="userSpaceOnUse">
            <stop stop-color="#FF95E7"/>
            <stop offset="1" stop-color="#FF95E7" stop-opacity="0"/>
        </linearGradient>
        <linearGradient id="paint3_linear_254_7724" x1="722.73" y1="10.6729" x2="722.73" y2="397.125" gradientUnits="userSpaceOnUse">
            <stop stop-color="white"/>
            <stop offset="1" stop-color="white" stop-opacity="0"/>
        </linearGradient>
        <linearGradient id="paint4_linear_254_7724" x1="417.874" y1="184.107" x2="890.761" y2="184.107" gradientUnits="userSpaceOnUse">
            <stop stop-color="#70FBFB"/>
            <stop offset="1" stop-color="#70FBFB" stop-opacity="0"/>
        </linearGradient>
        <linearGradient id="paint5_linear_254_7724" x1="1040.09" y1="154.475" x2="557.723" y2="248.098" gradientUnits="userSpaceOnUse">
            <stop stop-color="#FF95E7"/>
            <stop offset="1" stop-color="#FF95E7" stop-opacity="0"/>
        </linearGradient>
        <linearGradient id="paint6_linear_254_7724" x1="1113.91" y1="442.497" x2="1113.91" y2="621.96" gradientUnits="userSpaceOnUse">
            <stop stop-color="#35374F"/>
            <stop offset="1" stop-color="#00001C"/>
        </linearGradient>
        <linearGradient id="paint7_linear_254_7724" x1="772.425" y1="772.126" x2="1154.37" y2="661.552" gradientUnits="userSpaceOnUse">
            <stop stop-color="#70FBFB"/>
            <stop offset="1" stop-color="#70FBFB" stop-opacity="0"/>
        </linearGradient>
        <linearGradient id="paint8_linear_254_7724" x1="1560.3" y1="756.96" x2="1256.89" y2="846.441" gradientUnits="userSpaceOnUse">
            <stop stop-color="#FF95E7"/>
            <stop offset="1" stop-color="#FF95E7" stop-opacity="0"/>
        </linearGradient>
        <linearGradient id="paint9_linear_254_7724" x1="1106.4" y1="340.143" x2="1106.4" y2="669.492" gradientUnits="userSpaceOnUse">
            <stop stop-color="white"/>
            <stop offset="1" stop-color="white" stop-opacity="0"/>
        </linearGradient>
        <linearGradient id="paint10_linear_254_7724" x1="801.555" y1="487.95" x2="1274.43" y2="487.95" gradientUnits="userSpaceOnUse">
            <stop stop-color="#70FBFB"/>
            <stop offset="1" stop-color="#70FBFB" stop-opacity="0"/>
        </linearGradient>
        <linearGradient id="paint11_linear_254_7724" x1="1423.75" y1="462.697" x2="947.907" y2="571.063" gradientUnits="userSpaceOnUse">
            <stop stop-color="#FF95E7"/>
            <stop offset="1" stop-color="#FF95E7" stop-opacity="0"/>
        </linearGradient>
        <linearGradient id="paint12_linear_254_7724" x1="295.413" y1="303.392" x2="295.413" y2="441.598" gradientUnits="userSpaceOnUse">
            <stop stop-color="#35374F"/>
            <stop offset="1" stop-color="#00001C"/>
        </linearGradient>
        <linearGradient id="paint13_linear_254_7724" x1="-0.0935297" y1="728.948" x2="370.413" y2="602.068" gradientUnits="userSpaceOnUse">
            <stop stop-color="#70FBFB"/>
            <stop offset="1" stop-color="#70FBFB" stop-opacity="0"/>
        </linearGradient>
        <linearGradient id="paint14_linear_254_7724" x1="787.778" y1="716.127" x2="493.763" y2="818.697" gradientUnits="userSpaceOnUse">
            <stop stop-color="#FF95E7"/>
            <stop offset="1" stop-color="#FF95E7" stop-opacity="0"/>
        </linearGradient>
        <linearGradient id="paint15_linear_254_7724" x1="333.894" y1="285.636" x2="333.894" y2="672.063" gradientUnits="userSpaceOnUse">
            <stop stop-color="white"/>
            <stop offset="1" stop-color="white" stop-opacity="0"/>
        </linearGradient>
        <linearGradient id="paint16_linear_254_7724" x1="29.0368" y1="459.058" x2="501.926" y2="459.058" gradientUnits="userSpaceOnUse">
            <stop stop-color="#70FBFB"/>
            <stop offset="1" stop-color="#70FBFB" stop-opacity="0"/>
        </linearGradient>
        <linearGradient id="paint17_linear_254_7724" x1="651.259" y1="429.429" x2="168.889" y2="523.059" gradientUnits="userSpaceOnUse">
            <stop stop-color="#FF95E7"/>
            <stop offset="1" stop-color="#FF95E7" stop-opacity="0"/>
        </linearGradient>
        <linearGradient id="paint18_linear_254_7724" x1="568.021" y1="664.039" x2="568.021" y2="890.709" gradientUnits="userSpaceOnUse">
            <stop stop-color="#35374F"/>
            <stop offset="1" stop-color="#00001C"/>
        </linearGradient>
        <linearGradient id="paint19_linear_254_7724" x1="388.754" y1="1000.52" x2="713.962" y2="900.573" gradientUnits="userSpaceOnUse">
            <stop stop-color="#70FBFB"/>
            <stop offset="1" stop-color="#70FBFB" stop-opacity="0"/>
        </linearGradient>
        <linearGradient id="paint20_linear_254_7724" x1="1066.17" y1="988.231" x2="807.92" y2="1069.08" gradientUnits="userSpaceOnUse">
            <stop stop-color="#FF95E7"/>
            <stop offset="1" stop-color="#FF95E7" stop-opacity="0"/>
        </linearGradient>
        <linearGradient id="paint21_linear_254_7724" x1="675.923" y1="567.71" x2="675.923" y2="954.136" gradientUnits="userSpaceOnUse">
            <stop stop-color="white"/>
            <stop offset="1" stop-color="white" stop-opacity="0"/>
        </linearGradient>
        <linearGradient id="paint22_linear_254_7724" x1="413.842" y1="741.132" x2="820.378" y2="741.132" gradientUnits="userSpaceOnUse">
            <stop stop-color="#70FBFB"/>
            <stop offset="1" stop-color="#70FBFB" stop-opacity="0"/>
        </linearGradient>
        <linearGradient id="paint23_linear_254_7724" x1="948.757" y1="711.503" x2="530.104" y2="781.362" gradientUnits="userSpaceOnUse">
            <stop stop-color="#FF95E7"/>
            <stop offset="1" stop-color="#FF95E7" stop-opacity="0"/>
        </linearGradient>
        <clipPath id="clip0_254_7724">
            <rect width="1440" height="1002" fill="white"/>
        </clipPath>
        <clipPath id="clip1_254_7724">
            <rect width="667.482" height="1332.44" fill="white" transform="translate(388.834 10.6667)"/>
        </clipPath>
        <clipPath id="clip2_254_7724">
            <rect width="667.482" height="1544.21" fill="white" transform="translate(772.519 340.148)"/>
        </clipPath>
        <clipPath id="clip3_254_7724">
            <rect width="667.482" height="1383.58" fill="white" transform="translate(0 285.63)"/>
        </clipPath>
        <clipPath id="clip4_254_7724">
            <rect width="573.878" height="1333.68" fill="white" transform="translate(388.834 567.704)"/>
        </clipPath>
    </defs>
</svg>
