<svg width="100" height="100" viewBox="0 0 100 100" fill="none" xmlns="http://www.w3.org/2000/svg">
    <path d="M51.7319 1.74485V46.4948C51.7319 47.4588 52.5129 48.2397 53.4768 48.2397H98.2242C99.1881 48.2397 99.9691 47.4588 99.9691 46.4948V1.74485C99.9691 0.780928 99.1881 0 98.2242 0H53.4794C52.5154 0 51.7345 0.780928 51.7345 1.74485H51.7319ZM75.8247 30.3814C74.8608 30.3814 74.0799 29.6005 74.0799 28.6366V20.0258C74.0799 19.0619 74.8608 18.2809 75.8247 18.2809C76.7886 18.2809 77.5696 19.0619 77.5696 20.0258V28.6366C77.5696 29.6005 76.7886 30.3814 75.8247 30.3814Z" fill="white"/>
    <path d="M20.3582 53.4793V62.0902C20.3582 63.0541 19.5773 63.835 18.6134 63.835C17.6495 63.835 16.8686 63.0541 16.8686 62.0902V53.4793C16.8686 52.5154 16.0876 51.7345 15.1237 51.7345H1.74485C0.780928 51.7345 0 52.5154 0 53.4793V98.2268C0 99.1907 0.780928 99.9716 1.74485 99.9716H33.2036C33.8247 99.9716 34.4021 99.6391 34.7139 99.1031L48.0052 76.2113C48.1598 75.9458 48.2423 75.6417 48.2423 75.335V53.4793C48.2423 52.5154 47.4613 51.7345 46.4974 51.7345H22.1057C21.1418 51.7345 20.3608 52.5154 20.3608 53.4793H20.3582Z" fill="white"/>
    <path d="M84.2732 51.7319H53.4793C52.5154 51.7319 51.7345 52.5129 51.7345 53.4768V98.2242C51.7345 99.1881 52.5154 99.9691 53.4793 99.9691H72.335C73.2989 99.9691 74.0799 99.1881 74.0799 98.2242V94.4639C74.0799 93.5 74.8608 92.7191 75.8247 92.7191C76.7886 92.7191 77.5696 93.5 77.5696 94.4639V98.2242C77.5696 99.1881 78.3505 99.9691 79.3144 99.9691H98.2242C99.1881 99.9691 99.969 99.1881 99.969 98.2242V77.4278C99.969 77.1185 99.8866 76.8144 99.7319 76.549L85.7757 52.5953C85.4639 52.0593 84.8891 51.7294 84.268 51.7294L84.2732 51.7319ZM75.8273 83.0103C74.8634 83.0103 74.0824 82.2294 74.0824 81.2655V72.6546C74.0824 71.6907 74.8634 70.9098 75.8273 70.9098C76.7912 70.9098 77.5721 71.6907 77.5721 72.6546V81.2655C77.5721 82.2294 76.7912 83.0103 75.8273 83.0103Z" fill="white"/>
    <path d="M36.8608 1.74485V10.3608C36.8608 11.3247 36.0799 12.1057 35.116 12.1057C34.1521 12.1057 33.3711 11.3247 33.3711 10.3608V1.74485C33.3711 0.780928 32.5902 0 31.6263 0H1.74485C0.780928 0 0 0.780928 0 1.74485V46.4948C0 47.4588 0.780928 48.2397 1.74485 48.2397H15.1211C16.0851 48.2397 16.866 47.4588 16.866 46.4948V37.884C16.866 36.9201 17.6469 36.1392 18.6108 36.1392C19.5747 36.1392 20.3557 36.9201 20.3557 37.884V46.4948C20.3557 47.4588 21.1366 48.2397 22.1005 48.2397H46.4897C47.4536 48.2397 48.2345 47.4588 48.2345 46.4948V1.74485C48.2345 0.780928 47.4536 0 46.4897 0H38.6031C37.6392 0 36.8582 0.780928 36.8582 1.74485H36.8608Z" fill="white"/>
</svg>