<svg width="38" height="38" viewBox="0 0 38 38" fill="none" xmlns="http://www.w3.org/2000/svg">
    <rect width="38" height="38" rx="19" fill="#FF95E7"/>
    <path d="M13.7324 15.4336C14.5098 15.4336 15.1562 15.5293 15.6719 15.7207C16.1875 15.9082 16.5742 16.1895 16.832 16.5645C17.0938 16.9395 17.2246 17.4062 17.2246 17.9648C17.2246 18.3125 17.166 18.6289 17.0488 18.9141C16.9316 19.1992 16.7637 19.4551 16.5449 19.6816C16.3301 19.9043 16.0723 20.0996 15.7715 20.2676L18.2676 24H15.6426L13.8262 20.8828H13.2402V24H10.9258V15.4336H13.7324ZM13.6973 17.1855H13.2402V19.1426H13.6738C14.0293 19.1426 14.3203 19.0645 14.5469 18.9082C14.7734 18.752 14.8867 18.4727 14.8867 18.0703C14.8867 17.793 14.793 17.5762 14.6055 17.4199C14.418 17.2637 14.1152 17.1855 13.6973 17.1855ZM26.8225 19.7051C26.8225 20.3652 26.7424 20.9668 26.5823 21.5098C26.426 22.0488 26.1799 22.5137 25.844 22.9043C25.508 23.2949 25.0764 23.5957 24.5491 23.8066C24.0217 24.0137 23.3909 24.1172 22.6565 24.1172C21.9377 24.1172 21.3147 24.0137 20.7873 23.8066C20.2639 23.5957 19.8323 23.2969 19.4924 22.9102C19.1526 22.5195 18.9006 22.0527 18.7366 21.5098C18.5725 20.9668 18.4905 20.3613 18.4905 19.6934C18.4905 18.8027 18.637 18.0293 18.9299 17.373C19.2268 16.7129 19.6838 16.2031 20.301 15.8438C20.9182 15.4805 21.7073 15.2988 22.6682 15.2988C23.6448 15.2988 24.4377 15.4805 25.0471 15.8438C25.6604 16.207 26.1096 16.7188 26.3948 17.3789C26.6799 18.0391 26.8225 18.8145 26.8225 19.7051ZM20.928 19.7051C20.928 20.2207 20.9866 20.6641 21.1038 21.0352C21.2209 21.4062 21.4065 21.6914 21.6604 21.8906C21.9143 22.0898 22.2463 22.1895 22.6565 22.1895C23.0823 22.1895 23.4202 22.0898 23.6702 21.8906C23.9241 21.6914 24.1057 21.4062 24.2151 21.0352C24.3284 20.6641 24.385 20.2207 24.385 19.7051C24.385 18.9316 24.2561 18.3203 23.9983 17.8711C23.7405 17.4219 23.2971 17.1973 22.6682 17.1973C22.2502 17.1973 21.9123 17.2988 21.6545 17.502C21.4006 17.7051 21.2151 17.9941 21.0979 18.3691C20.9846 18.7441 20.928 19.1895 20.928 19.7051Z" fill="#00001C"/>
</svg>
