<svg width="25" height="24" viewBox="0 0 25 24" fill="none" xmlns="http://www.w3.org/2000/svg">
    <path fill-rule="evenodd" clip-rule="evenodd" d="M2 6.375C2 5.33947 2.83947 4.5 3.875 4.5H21.125C22.1605 4.5 23 5.33947 23 6.375V9.40135C23 9.66907 22.8573 9.91649 22.6255 10.0506C21.9511 10.4407 21.5 11.1681 21.5 12C21.5 12.8319 21.9511 13.5593 22.6255 13.9494C22.8573 14.0835 23 14.3309 23 14.5987V17.625C23 18.6605 22.1605 19.5 21.125 19.5H3.875C2.83947 19.5 2 18.6605 2 17.625V14.5987C2 14.3309 2.14271 14.0835 2.37446 13.9494C3.04894 13.5593 3.5 12.8319 3.5 12C3.5 11.1681 3.04894 10.4407 2.37446 10.0506C2.14271 9.91649 2 9.66907 2 9.40135V6.375ZM17 5.25C17.4142 5.25 17.75 5.58579 17.75 6V6.75C17.75 7.16421 17.4142 7.5 17 7.5C16.5858 7.5 16.25 7.16421 16.25 6.75V6C16.25 5.58579 16.5858 5.25 17 5.25ZM17.75 9.75C17.75 9.33579 17.4142 9 17 9C16.5858 9 16.25 9.33579 16.25 9.75V10.5C16.25 10.9142 16.5858 11.25 17 11.25C17.4142 11.25 17.75 10.9142 17.75 10.5V9.75ZM17 12.75C17.4142 12.75 17.75 13.0858 17.75 13.5V14.25C17.75 14.6642 17.4142 15 17 15C16.5858 15 16.25 14.6642 16.25 14.25V13.5C16.25 13.0858 16.5858 12.75 17 12.75ZM17.75 17.25C17.75 16.8358 17.4142 16.5 17 16.5C16.5858 16.5 16.25 16.8358 16.25 17.25V18C16.25 18.4142 16.5858 18.75 17 18.75C17.4142 18.75 17.75 18.4142 17.75 18V17.25ZM6.5 12C6.5 11.5858 6.83579 11.25 7.25 11.25H12.5C12.9142 11.25 13.25 11.5858 13.25 12C13.25 12.4142 12.9142 12.75 12.5 12.75H7.25C6.83579 12.75 6.5 12.4142 6.5 12ZM7.25 14.25C6.83579 14.25 6.5 14.5858 6.5 15C6.5 15.4142 6.83579 15.75 7.25 15.75H10.25C10.6642 15.75 11 15.4142 11 15C11 14.5858 10.6642 14.25 10.25 14.25H7.25Z" fill="#FF95E7"/>
</svg>
